<svg xmlns="http://www.w3.org/2000/svg" width="187" height="187" viewBox="0 0 187 187" fill="none">
    <path fill-rule="evenodd" clip-rule="evenodd" d="M90.4558 2.95217C93.416 1.29064 97.0606 1.29064 100.017 2.95217C114.644 11.1641 158.66 35.883 173.291 44.095C176.251 45.7521 178.074 48.8221 178.074 52.1456C178.074 68.5695 178.074 118.003 178.074 134.427C178.074 137.75 176.251 140.82 173.291 142.482C158.664 150.694 114.648 175.413 100.017 183.625C97.0563 185.286 93.4116 185.286 90.4558 183.625C75.8285 175.413 31.8126 150.694 17.1814 142.482C14.2256 140.82 12.4028 137.754 12.4028 134.431C12.4028 118.007 12.4028 68.5739 12.4028 52.15C12.4028 48.8264 14.2256 45.7565 17.1857 44.095C31.8082 35.883 75.8329 11.1641 90.4558 2.95217Z" fill="#A99BBB"/>
    <path fill-rule="evenodd" clip-rule="evenodd" d="M13.7286 138.662C12.5689 137.109 12.4028 135.635 12.4028 133.651C12.4028 117.323 12.4028 68.1731 12.4028 51.8405C12.4028 48.5349 14.2212 45.482 17.1726 43.8336C31.7475 35.6697 75.6152 11.0946 90.1896 2.92643C93.1415 1.27364 97.1394 1.30814 100.091 2.96141C114.666 11.1253 158.385 35.491 172.96 43.6548C174.137 44.318 175.035 45.1157 175.837 46.167L13.7286 138.662Z" fill="#A99BBB"/>
    <path fill-rule="evenodd" clip-rule="evenodd" d="M95.2381 32.2331C128.926 32.2331 156.275 59.5905 156.275 93.289C156.275 126.987 128.926 154.344 95.2381 154.344C61.5503 154.344 34.2017 126.987 34.2017 93.289C34.2017 59.5905 61.5503 32.2331 95.2381 32.2331ZM95.2381 62.761C112.08 62.761 125.756 76.4376 125.756 93.289C125.756 110.136 112.08 123.816 95.2381 123.816C78.3964 123.816 64.7199 110.136 64.7199 93.289C64.7199 76.4376 78.392 62.761 95.2381 62.761Z" fill="white"/>
    <path fill-rule="evenodd" clip-rule="evenodd" d="M175.828 46.2088C178.078 48.3154 178.034 51.4903 178.034 53.9894C178.034 70.5396 177.895 117.614 178.074 134.164C178.091 135.891 177.52 137.71 176.665 139.079L93.4641 93.2875L175.828 46.2088Z" fill="#A99BBB"/>
    <path fill-rule="evenodd" clip-rule="evenodd" d="M125.756 80.2047H134.476V106.371H125.756V80.2047ZM156.275 80.2047H164.994V106.371H156.275V80.2047Z" fill="white"/>
    <path fill-rule="evenodd" clip-rule="evenodd" d="M117.037 88.927H143.196V97.6491H117.037V88.927ZM147.555 88.927H173.714V97.6491H147.555V88.927Z" fill="white"/>
  </svg>