<svg xmlns="http://www.w3.org/2000/svg" width="187" height="187" viewBox="0 0 187 187" fill="none">
    <mask id="mask0_306_2" style="mask-type:luminance" maskUnits="userSpaceOnUse" x="5" y="6" width="131" height="131">
      <path d="M5.97845 6.4541H135.565V136.186H5.97845V6.4541Z" fill="white"/>
    </mask>
    <g mask="url(#mask0_306_2)">
      <mask id="mask1_306_2" style="mask-type:luminance" maskUnits="userSpaceOnUse" x="6" y="6" width="130" height="131">
        <path d="M92.6856 6.43381C48.3733 6.43381 51.1401 25.6512 51.1401 25.6512L51.1892 45.5609H93.4717V51.5385H34.3946C34.3946 51.5385 6.04071 48.3223 6.04071 93.0355C6.04022 137.752 30.7888 136.166 30.7888 136.166H45.5579V115.415C45.5579 115.415 44.7617 90.6637 69.911 90.6637H111.85C111.85 90.6637 135.409 91.0465 135.409 67.8905V29.6039C135.409 29.6039 138.99 6.43381 92.6856 6.43381ZM69.3678 19.8218C73.5741 19.8218 76.973 23.2225 76.973 27.4298C76.973 31.6376 73.5741 35.0379 69.3678 35.0379C65.1601 35.0379 61.7603 31.6376 61.7603 27.4298C61.7603 23.2225 65.1601 19.8218 69.3678 19.8218Z" fill="white"/>
      </mask>
      <g mask="url(#mask1_306_2)">
        <path d="M6.03894 6.45343V137.753H138.989V6.45343H6.03894Z" fill="#A99BBB"/>
      </g>
    </g>
    <mask id="mask2_306_2" style="mask-type:luminance" maskUnits="userSpaceOnUse" x="51" y="50" width="130" height="131">
      <path d="M51.1168 50.2451H180.588V180.139H51.1168V50.2451Z" fill="white"/>
    </mask>
    <g mask="url(#mask2_306_2)">
      <mask id="mask3_306_2" style="mask-type:luminance" maskUnits="userSpaceOnUse" x="51" y="50" width="130" height="131">
        <path d="M93.9423 180.091C138.251 180.091 135.483 160.87 135.483 160.87L135.435 140.959H93.1495V134.985H152.228C152.228 134.985 180.584 138.197 180.584 93.4873C180.584 48.7717 155.836 50.3574 155.836 50.3574H141.067V71.1062C141.067 71.1062 141.859 95.8596 116.715 95.8596H74.7716C74.7716 95.8596 51.2118 95.4767 51.2118 118.635V156.919C51.2118 156.919 47.6342 180.091 93.9423 180.091ZM117.255 166.701C113.052 166.701 109.648 163.296 109.648 159.093C109.648 154.882 113.052 151.485 117.255 151.485C121.465 151.485 124.862 154.882 124.862 159.093C124.862 163.296 121.465 166.701 117.255 166.701Z" fill="white"/>
      </mask>
      <g mask="url(#mask3_306_2)">
        <path d="M47.6351 48.7707V180.09H180.585V48.7707H47.6351Z" fill="#A99BBB"/>
      </g>
    </g>
  </svg>