<svg xmlns="http://www.w3.org/2000/svg" width="187" height="187" viewBox="0 0 187 187" fill="none">
    <path fill-rule="evenodd" clip-rule="evenodd" d="M88.6081 5.19307C91.4954 3.57283 95.0507 3.57283 97.9336 5.19307C112.2 13.201 155.131 37.3063 169.401 45.3142C172.289 46.93 174.066 49.9242 174.066 53.1647C174.066 69.1809 174.066 117.387 174.066 133.402C174.066 136.643 172.289 139.637 169.401 141.257C155.135 149.266 112.204 173.371 97.9336 181.378C95.0463 182.999 91.4915 182.999 88.6081 181.378C74.3418 173.371 31.4112 149.266 17.1405 141.257C14.2576 139.637 12.4799 136.647 12.4799 133.407C12.4799 117.391 12.4799 69.1853 12.4799 53.169C12.4799 49.9286 14.2576 46.9344 17.1448 45.3142C31.4068 37.3063 74.3462 13.201 88.6081 5.19307Z" fill="#A99BBB"/>
    <path fill-rule="evenodd" clip-rule="evenodd" d="M13.7727 137.531C12.6417 136.017 12.4799 134.58 12.4799 132.645C12.4799 116.722 12.4799 68.7929 12.4799 52.8665C12.4799 49.6425 14.2532 46.6659 17.1322 45.0583C31.3475 37.097 74.1339 13.1321 88.3492 5.16696C91.2277 3.55499 95.127 3.58899 98.006 5.20097C112.221 13.1622 154.863 36.9226 169.078 44.8838C170.226 45.53 171.102 46.3083 171.885 47.3334L13.7727 137.531Z" fill="#A99BBB"/>
    <path fill-rule="evenodd" clip-rule="evenodd" d="M93.2729 33.7455C126.13 33.7455 152.805 60.4232 152.805 93.2846C152.805 126.146 126.13 152.824 93.2729 152.824C60.4159 152.824 33.741 126.146 33.741 93.2846C33.741 60.4232 60.4159 33.7455 93.2729 33.7455ZM93.2729 63.515C109.699 63.515 123.039 76.852 123.039 93.2846C123.039 109.713 109.699 123.054 93.2729 123.054C76.8466 123.054 63.5072 109.713 63.5072 93.2846C63.5072 76.852 76.8422 63.515 93.2729 63.515Z" fill="white"/>
    <path fill-rule="evenodd" clip-rule="evenodd" d="M171.876 47.3744C174.07 49.4285 174.027 52.5242 174.027 54.9611C174.027 71.1008 173.891 117.006 174.066 133.145C174.083 134.829 173.526 136.602 172.692 137.938L91.5422 93.2832L171.876 47.3744Z" fill="#A99BBB"/>
  </svg>