<svg xmlns="http://www.w3.org/2000/svg" width="187" height="187" viewBox="0 0 187 187" fill="none">
    <path d="M70.4995 140.829C70.4995 140.829 63.7455 144.76 75.3063 146.09C89.3146 147.687 96.4689 147.457 111.903 144.534C111.903 144.534 115.961 147.078 121.631 149.284C87.0322 164.116 43.3238 148.424 70.4995 140.829Z" fill="#A99BBB"/>
    <path d="M66.2712 121.478C66.2712 121.478 58.6956 127.087 70.2656 128.284C85.2257 129.825 97.042 129.953 117.486 126.012C117.486 126.012 120.316 128.883 124.763 130.449C82.9278 142.681 36.333 131.417 66.2702 121.478" fill="#A99BBB"/>
    <path d="M101.914 88.6492C110.44 98.4707 99.6725 107.304 99.6725 107.304C99.6725 107.304 121.324 96.1266 111.381 82.1289C102.093 69.0786 94.9746 62.5943 133.525 40.236C133.525 40.236 73.0157 55.3472 101.914 88.6492Z" fill="#A99BBB"/>
    <path d="M147.675 155.146C147.675 155.146 152.674 159.266 142.173 162.454C122.2 168.504 59.0446 170.331 41.5018 162.695C35.1968 159.952 47.0233 156.144 50.7432 155.341C54.6231 154.501 56.8404 154.66 56.8404 154.66C49.827 149.716 11.5078 164.358 37.3767 168.555C107.921 179.994 165.974 163.401 147.674 155.146" fill="#A99BBB"/>
    <path d="M73.7476 101.426C73.7476 101.426 41.6237 109.057 62.3719 111.826C71.1319 113.003 88.5979 112.737 104.861 111.371C118.157 110.25 131.508 107.865 131.508 107.865C131.508 107.865 126.821 109.876 123.428 112.189C90.8035 120.772 27.7868 116.78 45.9281 108.003C61.2725 100.587 73.7476 101.426 73.7476 101.426Z" fill="#A99BBB"/>
    <path d="M131.375 133.639C164.537 116.407 149.199 99.8456 138.499 102.077C135.879 102.625 134.707 103.096 134.707 103.096C134.707 103.096 135.679 101.57 137.542 100.911C158.713 93.4691 174.997 122.866 130.705 134.509C130.705 134.509 131.221 134.049 131.375 133.639Z" fill="#A99BBB"/>
    <mask id="mask0_306_33" style="mask-type:luminance" maskUnits="userSpaceOnUse" x="70" y="4" width="47" height="98">
      <path d="M70.5195 4.14825H116.164V101.116H70.5195V4.14825Z" fill="white"/>
    </mask>
    <g mask="url(#mask0_306_33)">
      <path d="M111.38 4.13238C111.38 4.13238 129.747 22.5049 93.9596 50.7568C65.2666 73.4177 87.4199 86.3407 93.9494 101.106C77.1995 85.9924 64.9076 72.686 73.154 60.3057C85.2599 42.1285 118.79 33.316 111.38 4.1319" fill="#A99BBB"/>
    </g>
    <path d="M77.0061 180.341C108.838 182.378 157.714 179.21 158.87 164.148C158.87 164.148 156.644 169.855 132.567 174.389C105.398 179.502 71.8884 178.908 52.0171 175.628C52.0171 175.628 56.0849 178.995 77.0047 180.341" fill="#A99BBB"/>
  </svg>