<svg xmlns="http://www.w3.org/2000/svg" width="187" height="187" viewBox="0 0 187 187" fill="none">
    <mask id="mask0_306_46" style="mask-type:luminance" maskUnits="userSpaceOnUse" x="2" y="45" width="182" height="97">
      <path d="M2.54413 45.5214H183.972V141.039H2.54413V45.5214Z" fill="white"/>
    </mask>
    <g mask="url(#mask0_306_46)">
      <mask id="mask1_306_46" style="mask-type:luminance" maskUnits="userSpaceOnUse" x="2" y="45" width="182" height="97">
        <path d="M183.973 93.2902C183.973 94.0709 183.936 94.8516 183.863 95.6314C183.791 96.4116 183.682 97.1899 183.536 97.9673C183.391 98.7446 183.209 99.5195 182.991 100.292C182.773 101.064 182.52 101.833 182.23 102.599C181.94 103.365 181.615 104.127 181.254 104.884C180.894 105.642 180.498 106.394 180.067 107.142C179.636 107.889 179.17 108.63 178.67 109.366C178.17 110.101 177.636 110.829 177.068 111.551C176.5 112.272 175.898 112.986 175.263 113.692C174.629 114.398 173.961 115.095 173.262 115.784C172.562 116.472 171.83 117.152 171.067 117.822C170.304 118.492 169.51 119.151 168.685 119.8C167.86 120.449 167.006 121.088 166.121 121.715C165.237 122.342 164.323 122.958 163.382 123.562C162.44 124.165 161.471 124.756 160.474 125.335C159.476 125.914 158.453 126.479 157.403 127.031C156.353 127.583 155.279 128.122 154.179 128.646C153.079 129.171 151.955 129.681 150.807 130.176C149.66 130.671 148.49 131.152 147.297 131.617C146.105 132.082 144.891 132.531 143.657 132.965C142.423 133.399 141.169 133.817 139.896 134.218C138.622 134.62 137.33 135.005 136.021 135.373C134.712 135.741 133.386 136.092 132.044 136.426C130.702 136.76 129.345 137.076 127.974 137.375C126.602 137.673 125.218 137.955 123.82 138.218C122.422 138.481 121.012 138.726 119.592 138.952C118.171 139.179 116.741 139.387 115.301 139.577C113.861 139.767 112.413 139.938 110.957 140.09C109.5 140.243 108.038 140.376 106.57 140.491C105.101 140.605 103.628 140.701 102.151 140.777C100.673 140.854 99.193 140.911 97.7102 140.949C96.2275 140.988 94.7437 141.007 93.2591 141.007C91.7744 141.007 90.2907 140.988 88.8079 140.949C87.3252 140.911 85.8453 140.854 84.3679 140.777C82.89 140.701 81.4175 140.605 79.9488 140.491C78.4802 140.376 77.0178 140.243 75.5618 140.09C74.1058 139.938 72.6575 139.767 71.2176 139.577C69.7776 139.387 68.3473 139.179 66.9262 138.952C65.5057 138.726 64.0963 138.481 62.6986 138.218C61.3008 137.955 59.9162 137.673 58.5447 137.375C57.1728 137.076 55.8163 136.76 54.474 136.426C53.1321 136.092 51.8063 135.741 50.497 135.373C49.1877 135.005 47.8964 134.62 46.623 134.218C45.3497 133.817 44.0957 133.399 42.8613 132.965C41.6268 132.531 40.4137 132.082 39.221 131.617C38.0287 131.152 36.8589 130.671 35.7108 130.176C34.5633 129.681 33.4396 129.171 32.3397 128.646C31.2398 128.122 30.1646 127.583 29.1148 127.031C28.0654 126.479 27.0417 125.914 26.0448 125.335C25.0479 124.756 24.0782 124.165 23.1367 123.562C22.1946 122.958 21.2818 122.342 20.3971 121.715C19.5129 121.088 18.6583 120.449 17.8334 119.8C17.0089 119.151 16.2146 118.492 15.4514 117.822C14.6881 117.152 13.9565 116.472 13.2569 115.784C12.5568 115.095 11.8898 114.398 11.2548 113.692C10.6203 112.986 10.0188 112.272 9.4509 111.551C8.88248 110.829 8.34856 110.101 7.84816 109.366C7.34824 108.63 6.88233 107.889 6.4514 107.142C6.02047 106.394 5.62501 105.642 5.26404 104.884C4.90356 104.127 4.57805 103.365 4.2885 102.599C3.99895 101.833 3.74534 101.064 3.52721 100.292C3.30956 99.5195 3.12786 98.7446 2.98211 97.9673C2.83685 97.1899 2.72753 96.4116 2.65466 95.6314C2.58179 94.8516 2.54535 94.0709 2.54535 93.2902C2.54535 92.5095 2.58179 91.7287 2.65466 90.949C2.72753 90.1688 2.83685 89.3905 2.98211 88.6131C3.12786 87.8358 3.30956 87.0614 3.52721 86.2884C3.74534 85.516 3.99895 84.7469 4.2885 83.9813C4.57805 83.2151 4.90356 82.4533 5.26404 81.6959C5.62501 80.9385 6.02047 80.186 6.4514 79.4388C6.88233 78.6916 7.34824 77.9502 7.84816 77.2146C8.34856 76.4796 8.88248 75.7513 9.4509 75.0299C10.0188 74.3084 10.6203 73.5947 11.2548 72.8888C11.8898 72.1824 12.5568 71.4853 13.2569 70.7969C13.9565 70.108 14.6881 69.4288 15.4514 68.7588C16.2146 68.0889 17.0089 67.4296 17.8334 66.78C18.6583 66.131 19.5129 65.4926 20.3971 64.8654C21.2818 64.2382 22.1946 63.6226 23.1367 63.0188C24.0782 62.4154 25.0479 61.8241 26.0448 61.2455C27.0417 60.6669 28.0654 60.1014 29.1148 59.5495C30.1646 58.9971 31.2398 58.4588 32.3397 57.9346C33.4396 57.4099 34.5633 56.8998 35.7108 56.4047C36.8589 55.9092 38.0287 55.4287 39.221 54.9637C40.4137 54.4983 41.6268 54.0489 42.8613 53.6151C44.0957 53.1812 45.3497 52.7634 46.623 52.3621C47.8964 51.9608 49.1877 51.5756 50.497 51.2078C51.8063 50.8396 53.1321 50.4888 54.474 50.1545C55.8163 49.8208 57.1728 49.5045 58.5447 49.2057C59.9162 48.9069 61.3008 48.6256 62.6986 48.3628C64.0963 48.0995 65.5057 47.8546 66.9262 47.6282C68.3473 47.4014 69.7776 47.1929 71.2176 47.0035C72.6575 46.8135 74.1058 46.6425 75.5618 46.4904C77.0178 46.3379 78.4802 46.2043 79.9488 46.0896C81.4175 45.9754 82.89 45.8797 84.3679 45.803C85.8453 45.7267 87.3252 45.6694 88.8079 45.631C90.2907 45.5926 91.7744 45.5732 93.2591 45.5732C94.7437 45.5732 96.2275 45.5926 97.7102 45.631C99.193 45.6694 100.673 45.7267 102.151 45.803C103.628 45.8797 105.101 45.9754 106.57 46.0896C108.038 46.2043 109.5 46.3379 110.957 46.4904C112.413 46.6425 113.861 46.8135 115.301 47.0035C116.741 47.1929 118.171 47.4014 119.592 47.6282C121.012 47.8546 122.422 48.0995 123.82 48.3628C125.218 48.6256 126.602 48.9069 127.974 49.2057C129.345 49.5045 130.702 49.8208 132.044 50.1545C133.386 50.4888 134.712 50.8396 136.021 51.2078C137.33 51.5756 138.622 51.9608 139.896 52.3621C141.169 52.7634 142.423 53.1812 143.657 53.6151C144.891 54.0489 146.105 54.4983 147.297 54.9637C148.49 55.4287 149.66 55.9092 150.807 56.4047C151.955 56.8998 153.079 57.4099 154.179 57.9346C155.279 58.4588 156.353 58.9971 157.403 59.5495C158.453 60.1014 159.476 60.6669 160.474 61.2455C161.471 61.8241 162.44 62.4154 163.382 63.0188C164.323 63.6226 165.237 64.2382 166.121 64.8654C167.006 65.4926 167.86 66.131 168.685 66.78C169.51 67.4296 170.304 68.0889 171.067 68.7588C171.83 69.4288 172.562 70.108 173.262 70.7969C173.961 71.4853 174.629 72.1824 175.263 72.8888C175.898 73.5947 176.5 74.3084 177.068 75.0299C177.636 75.7513 178.17 76.4796 178.67 77.2146C179.17 77.9502 179.636 78.6916 180.067 79.4388C180.498 80.186 180.894 80.9385 181.254 81.6959C181.615 82.4533 181.94 83.2151 182.23 83.9813C182.52 84.7469 182.773 85.516 182.991 86.2884C183.209 87.0614 183.391 87.8358 183.536 88.6131C183.682 89.3905 183.791 90.1688 183.863 90.949C183.936 91.7287 183.973 92.5095 183.973 93.2902Z" fill="white"/>
      </mask>
      <g mask="url(#mask1_306_46)">
        <path d="M2.54535 45.5732V141.007H183.973V45.5732H2.54535Z" fill="#A99BBB"/>
      </g>
    </g>
    <path d="M110.903 107.61L115.226 85.3474C116.219 80.3133 115.368 76.5554 112.817 74.2157C110.336 71.9468 106.084 70.8124 99.8476 70.8124H92.3353L94.4612 59.7516C94.5322 59.3265 94.4612 58.9009 94.178 58.5463C93.8943 58.1921 93.5401 58.0502 93.115 58.0502H82.7678C82.059 58.0502 81.4921 58.5463 81.3502 59.1846L76.7436 82.7949C76.3185 80.1005 75.3264 77.8317 73.6255 75.9884C70.5779 72.5143 65.83 70.7415 59.3806 70.7415H39.466C38.7572 70.7415 38.1903 71.238 38.0489 71.8759L28.7647 119.806C28.6938 120.231 28.7647 120.656 29.0484 121.011C29.3317 121.365 29.6858 121.507 30.1114 121.507H40.529C41.2379 121.507 41.8048 121.011 41.9467 120.373L44.2145 108.816H51.9392C55.9788 108.816 59.4515 108.39 62.0735 107.54C64.8374 106.618 67.318 105.129 69.515 103.073C71.2868 101.442 72.7749 99.5987 73.9088 97.6131L72.0665 107.185C71.9956 107.61 72.0665 108.036 72.3498 108.39C72.6335 108.745 72.9877 108.887 73.4128 108.887H83.7599C84.4687 108.887 85.0357 108.39 85.1776 107.752L90.2802 81.5186H97.367C100.415 81.5186 101.265 82.0856 101.548 82.3693C101.761 82.5821 102.186 83.4328 101.69 86.0562L97.5798 107.256C97.5088 107.681 97.5798 108.107 97.863 108.461C98.1467 108.816 98.5009 108.958 98.926 108.958H109.557C110.194 108.745 110.761 108.248 110.903 107.61ZM62.9952 89.1757C62.3573 92.5085 61.1524 94.9192 59.3806 96.2659C57.6088 97.6131 54.7031 98.3224 50.8762 98.3224H46.2696L49.6004 81.164H55.5537C59.9476 81.164 61.7194 82.0856 62.4282 82.8658C63.3493 84.0002 63.5621 86.1981 62.9952 89.1757Z" fill="white"/>
    <path d="M155.126 75.9902C152.079 72.5161 147.331 70.7433 140.881 70.7433H120.825C120.116 70.7433 119.549 71.2398 119.408 71.8777L110.124 119.737C110.053 120.162 110.124 120.587 110.407 120.942C110.691 121.296 111.045 121.438 111.47 121.438H121.888C122.597 121.438 123.164 120.942 123.305 120.304L125.573 108.747H133.298C137.338 108.747 140.81 108.321 143.433 107.47C146.197 106.549 148.677 105.06 150.874 103.004C152.716 101.302 154.276 99.3877 155.41 97.3317C156.544 95.2752 157.394 93.0063 157.89 90.5247C159.095 84.3567 158.174 79.5353 155.126 75.9902ZM144.283 89.1775C143.645 92.5103 142.441 94.921 140.669 96.2677C138.897 97.6149 135.991 98.3242 132.164 98.3242H127.558L130.889 81.1657H136.842C141.236 81.1657 143.008 82.0874 143.716 82.8676C144.709 84.002 144.921 86.1999 144.283 89.1775Z" fill="white"/>
  </svg>